{
	"patcher" : 	{
		"fileversion" : 1,
		"appversion" : 		{
			"major" : 8,
			"minor" : 6,
			"revision" : 2,
			"architecture" : "x64",
			"modernui" : 1
		}
,
		"classnamespace" : "box",
		"rect" : [ 34.0, 62.0, 1228.0, 954.0 ],
		"bglocked" : 0,
		"openinpresentation" : 1,
		"default_fontsize" : 12.0,
		"default_fontface" : 0,
		"default_fontname" : "Arial",
		"gridonopen" : 1,
		"gridsize" : [ 15.0, 15.0 ],
		"gridsnaponopen" : 1,
		"objectsnaponopen" : 1,
		"statusbarvisible" : 2,
		"toolbarvisible" : 1,
		"lefttoolbarpinned" : 0,
		"toptoolbarpinned" : 0,
		"righttoolbarpinned" : 0,
		"bottomtoolbarpinned" : 0,
		"toolbars_unpinned_last_save" : 0,
		"tallnewobj" : 0,
		"boxanimatetime" : 200,
		"enablehscroll" : 1,
		"enablevscroll" : 1,
		"devicewidth" : 0.0,
		"description" : "",
		"digest" : "",
		"tags" : "",
		"style" : "",
		"subpatcher_template" : "",
		"assistshowspatchername" : 0,
		"boxes" : [ 			{
				"box" : 				{
					"id" : "obj-54",
					"maxclass" : "message",
					"numinlets" : 2,
					"numoutlets" : 1,
					"outlettype" : [ "" ],
					"patching_rect" : [ 429.0, 66.0, 47.0, 22.0 ],
					"text" : "size $1"
				}

			}
, 			{
				"box" : 				{
					"id" : "obj-76",
					"maxclass" : "newobj",
					"numinlets" : 0,
					"numoutlets" : 1,
					"outlettype" : [ "" ],
					"patching_rect" : [ 468.0, 20.0, 111.0, 22.0 ],
					"text" : "r modelDimensions"
				}

			}
, 			{
				"box" : 				{
					"id" : "obj-66",
					"linecount" : 2,
					"maxclass" : "comment",
					"numinlets" : 1,
					"numoutlets" : 0,
					"patching_rect" : [ 121.0, 830.0, 150.0, 33.0 ],
					"presentation" : 1,
					"presentation_rect" : [ 52.0, 820.0, 221.0, 20.0 ],
					"text" : "Point 7 is back up top of the interface"
				}

			}
, 			{
				"box" : 				{
					"bgcolor" : [ 0.850980392156863, 0.2, 0.905882352941176, 1.0 ],
					"fontname" : "Arial Bold",
					"hint" : "",
					"id" : "obj-9",
					"ignoreclick" : 1,
					"legacytextcolor" : 1,
					"maxclass" : "textbutton",
					"numinlets" : 1,
					"numoutlets" : 3,
					"outlettype" : [ "", "", "int" ],
					"parameter_enable" : 0,
					"patching_rect" : [ 222.0, 296.0, 20.0, 20.0 ],
					"presentation" : 1,
					"presentation_rect" : [ 18.0, 820.0, 20.0, 20.0 ],
					"rounded" : 60.0,
					"text" : "7",
					"textcolor" : [ 0.34902, 0.34902, 0.34902, 1.0 ]
				}

			}
, 			{
				"box" : 				{
					"bgcolor" : [ 0.850980392156863, 0.2, 0.905882352941176, 1.0 ],
					"fontname" : "Arial Bold",
					"hint" : "",
					"id" : "obj-75",
					"ignoreclick" : 1,
					"legacytextcolor" : 1,
					"maxclass" : "textbutton",
					"numinlets" : 1,
					"numoutlets" : 3,
					"outlettype" : [ "", "", "int" ],
					"parameter_enable" : 0,
					"patching_rect" : [ 207.0, 281.0, 20.0, 20.0 ],
					"presentation" : 1,
					"presentation_rect" : [ 22.0, 66.0, 20.0, 20.0 ],
					"rounded" : 60.0,
					"text" : "7",
					"textcolor" : [ 0.34902, 0.34902, 0.34902, 1.0 ]
				}

			}
, 			{
				"box" : 				{
					"bgcolor" : [ 0.850980392156863, 0.2, 0.905882352941176, 1.0 ],
					"fontname" : "Arial Bold",
					"hint" : "",
					"id" : "obj-74",
					"ignoreclick" : 1,
					"legacytextcolor" : 1,
					"maxclass" : "textbutton",
					"numinlets" : 1,
					"numoutlets" : 3,
					"outlettype" : [ "", "", "int" ],
					"parameter_enable" : 0,
					"patching_rect" : [ 192.0, 266.0, 20.0, 20.0 ],
					"presentation" : 1,
					"presentation_rect" : [ 18.0, 650.0, 20.0, 20.0 ],
					"rounded" : 60.0,
					"text" : "6",
					"textcolor" : [ 0.34902, 0.34902, 0.34902, 1.0 ]
				}

			}
, 			{
				"box" : 				{
					"bubble" : 1,
					"id" : "obj-73",
					"linecount" : 6,
					"maxclass" : "comment",
					"numinlets" : 1,
					"numoutlets" : 0,
					"patching_rect" : [ 203.0, 253.0, 150.0, 91.0 ],
					"presentation" : 1,
					"presentation_linecount" : 2,
					"presentation_rect" : [ 41.0, 559.0, 405.0, 37.0 ],
					"text" : "Your XY Pad settings and the mutlislider settings are now linked. Steps 2,3,4 can be made for as many settings as you like"
				}

			}
, 			{
				"box" : 				{
					"bgcolor" : [ 0.850980392156863, 0.2, 0.905882352941176, 1.0 ],
					"fontname" : "Arial Bold",
					"hint" : "",
					"id" : "obj-71",
					"ignoreclick" : 1,
					"legacytextcolor" : 1,
					"maxclass" : "textbutton",
					"numinlets" : 1,
					"numoutlets" : 3,
					"outlettype" : [ "", "", "int" ],
					"parameter_enable" : 0,
					"patching_rect" : [ 177.0, 251.0, 20.0, 20.0 ],
					"presentation" : 1,
					"presentation_rect" : [ 19.0, 567.0, 20.0, 20.0 ],
					"rounded" : 60.0,
					"text" : "5",
					"textcolor" : [ 0.34902, 0.34902, 0.34902, 1.0 ]
				}

			}
, 			{
				"box" : 				{
					"bgcolor" : [ 0.850980392156863, 0.2, 0.905882352941176, 1.0 ],
					"fontname" : "Arial Bold",
					"hint" : "",
					"id" : "obj-69",
					"ignoreclick" : 1,
					"legacytextcolor" : 1,
					"maxclass" : "textbutton",
					"numinlets" : 1,
					"numoutlets" : 3,
					"outlettype" : [ "", "", "int" ],
					"parameter_enable" : 0,
					"patching_rect" : [ 160.0, 316.0, 20.0, 20.0 ],
					"presentation" : 1,
					"presentation_rect" : [ 19.0, 505.0, 20.0, 20.0 ],
					"rounded" : 60.0,
					"text" : "4",
					"textcolor" : [ 0.34902, 0.34902, 0.34902, 1.0 ]
				}

			}
, 			{
				"box" : 				{
					"id" : "obj-68",
					"linecount" : 2,
					"maxclass" : "comment",
					"numinlets" : 1,
					"numoutlets" : 0,
					"patching_rect" : [ 478.0, 254.0, 150.0, 33.0 ],
					"presentation" : 1,
					"presentation_rect" : [ 48.0, 116.0, 191.0, 20.0 ],
					"text" : "Choose a multislider settings."
				}

			}
, 			{
				"box" : 				{
					"id" : "obj-67",
					"linecount" : 2,
					"maxclass" : "comment",
					"numinlets" : 1,
					"numoutlets" : 0,
					"patching_rect" : [ 166.0, 188.0, 150.0, 33.0 ],
					"presentation" : 1,
					"presentation_rect" : [ 61.0, 22.0, 249.0, 20.0 ],
					"text" : "To start, this needs to be in the first position"
				}

			}
, 			{
				"box" : 				{
					"bgcolor" : [ 0.850980392156863, 0.2, 0.905882352941176, 1.0 ],
					"fontname" : "Arial Bold",
					"hint" : "",
					"id" : "obj-65",
					"ignoreclick" : 1,
					"legacytextcolor" : 1,
					"maxclass" : "textbutton",
					"numinlets" : 1,
					"numoutlets" : 3,
					"outlettype" : [ "", "", "int" ],
					"parameter_enable" : 0,
					"patching_rect" : [ 145.0, 301.0, 20.0, 20.0 ],
					"presentation" : 1,
					"presentation_rect" : [ 551.0, 151.0, 20.0, 20.0 ],
					"rounded" : 60.0,
					"text" : "3",
					"textcolor" : [ 0.34902, 0.34902, 0.34902, 1.0 ]
				}

			}
, 			{
				"box" : 				{
					"id" : "obj-60",
					"linecount" : 2,
					"maxclass" : "comment",
					"numinlets" : 1,
					"numoutlets" : 0,
					"patching_rect" : [ 179.0, 298.0, 150.0, 33.0 ],
					"presentation" : 1,
					"presentation_rect" : [ 573.0, 151.0, 191.0, 20.0 ],
					"text" : "Choose a postion in the XY Pad"
				}

			}
, 			{
				"box" : 				{
					"bgcolor" : [ 0.850980392156863, 0.2, 0.905882352941176, 1.0 ],
					"fontname" : "Arial Bold",
					"hint" : "",
					"id" : "obj-51",
					"ignoreclick" : 1,
					"legacytextcolor" : 1,
					"maxclass" : "textbutton",
					"numinlets" : 1,
					"numoutlets" : 3,
					"outlettype" : [ "", "", "int" ],
					"parameter_enable" : 0,
					"patching_rect" : [ 130.0, 286.0, 20.0, 20.0 ],
					"presentation" : 1,
					"presentation_rect" : [ 22.0, 116.0, 20.0, 20.0 ],
					"rounded" : 60.0,
					"text" : "2",
					"textcolor" : [ 0.34902, 0.34902, 0.34902, 1.0 ]
				}

			}
, 			{
				"box" : 				{
					"bgcolor" : [ 0.850980392156863, 0.2, 0.905882352941176, 1.0 ],
					"fontname" : "Arial Bold",
					"hint" : "",
					"id" : "obj-1",
					"ignoreclick" : 1,
					"legacytextcolor" : 1,
					"maxclass" : "textbutton",
					"numinlets" : 1,
					"numoutlets" : 3,
					"outlettype" : [ "", "", "int" ],
					"parameter_enable" : 0,
					"patching_rect" : [ 1792.0, 330.0, 20.0, 20.0 ],
					"presentation" : 1,
					"presentation_rect" : [ 22.0, 32.0, 20.0, 20.0 ],
					"rounded" : 60.0,
					"text" : "1",
					"textcolor" : [ 0.34902, 0.34902, 0.34902, 1.0 ]
				}

			}
, 			{
				"box" : 				{
					"id" : "obj-63",
					"maxclass" : "newobj",
					"numinlets" : 1,
					"numoutlets" : 2,
					"outlettype" : [ "float", "bang" ],
					"patching_rect" : [ 849.0, 683.0, 178.0, 22.0 ],
					"text" : "buffer~ sensorBuf @samps 3"
				}

			}
, 			{
				"box" : 				{
					"id" : "obj-62",
					"maxclass" : "comment",
					"numinlets" : 1,
					"numoutlets" : 0,
					"patching_rect" : [ 848.0, 583.0, 101.0, 20.0 ],
					"text" : "xyz Lagesensor"
				}

			}
, 			{
				"box" : 				{
					"id" : "obj-59",
					"maxclass" : "newobj",
					"numinlets" : 0,
					"numoutlets" : 1,
					"outlettype" : [ "" ],
					"patching_rect" : [ 849.0, 606.0, 100.0, 22.0 ],
					"text" : "r SToRegression"
				}

			}
, 			{
				"box" : 				{
					"id" : "obj-58",
					"maxclass" : "comment",
					"numinlets" : 1,
					"numoutlets" : 0,
					"patching_rect" : [ 177.0, 845.0, 110.0, 20.0 ],
					"text" : "from sensor patch"
				}

			}
, 			{
				"box" : 				{
					"id" : "obj-37",
					"maxclass" : "newobj",
					"numinlets" : 1,
					"numoutlets" : 0,
					"patching_rect" : [ 494.0, 601.0, 100.0, 22.0 ],
					"text" : "s Regression"
				}

			}
, 			{
				"box" : 				{
					"id" : "obj-56",
					"maxclass" : "newobj",
					"numinlets" : 0,
					"numoutlets" : 1,
					"outlettype" : [ "" ],
					"patching_rect" : [ 44.0, 76.0, 100.0, 22.0 ],
					"text" : "r ToXY"
				}

			}
, 			{
				"box" : 				{
					"id" : "obj-53",
					"maxclass" : "newobj",
					"numinlets" : 0,
					"numoutlets" : 1,
					"outlettype" : [ "" ],
					"patching_rect" : [ 75.0, 844.0, 100.0, 22.0 ],
					"text" : "r rawSensorData"
				}

			}
, 			{
				"box" : 				{
					"bgcolor" : [ 0.250980392156863, 0.203921568627451, 0.937254901960784, 1.0 ],
					"fontsize" : 16.0,
					"id" : "obj-57",
					"maxclass" : "textbutton",
					"numinlets" : 1,
					"numoutlets" : 3,
					"outlettype" : [ "", "", "int" ],
					"parameter_enable" : 0,
					"patching_rect" : [ 318.0, 208.0, 139.0, 50.0 ],
					"presentation" : 1,
					"presentation_rect" : [ 41.0, 684.0, 110.0, 42.0 ],
					"rounded" : 10.0,
					"saved_attribute_attributes" : 					{
						"bgcolor" : 						{
							"expression" : "themecolor.live_midi_assignment"
						}
,
						"textoncolor" : 						{
							"expression" : "themecolor.maxwindow_posttext"
						}

					}
,
					"style" : "default",
					"text" : "Start training",
					"texton" : "Random values",
					"textoncolor" : [ 0.9, 0.9, 0.9, 1.0 ]
				}

			}
, 			{
				"box" : 				{
					"id" : "obj-52",
					"maxclass" : "message",
					"numinlets" : 2,
					"numoutlets" : 1,
					"outlettype" : [ "" ],
					"patching_rect" : [ 911.0, 147.0, 29.5, 22.0 ],
					"text" : "-2"
				}

			}
, 			{
				"box" : 				{
					"id" : "obj-6",
					"maxclass" : "message",
					"numinlets" : 2,
					"numoutlets" : 1,
					"outlettype" : [ "" ],
					"patching_rect" : [ 977.0, 147.0, 29.5, 22.0 ],
					"text" : "2."
				}

			}
, 			{
				"box" : 				{
					"id" : "obj-78",
					"maxclass" : "button",
					"numinlets" : 1,
					"numoutlets" : 1,
					"outlettype" : [ "bang" ],
					"parameter_enable" : 0,
					"patching_rect" : [ 911.0, 262.0, 24.0, 24.0 ]
				}

			}
, 			{
				"box" : 				{
					"id" : "obj-72",
					"maxclass" : "newobj",
					"numinlets" : 2,
					"numoutlets" : 1,
					"outlettype" : [ "" ],
					"patching_rect" : [ 911.0, 291.0, 61.0, 22.0 ],
					"text" : "pack 0. 0."
				}

			}
, 			{
				"box" : 				{
					"id" : "obj-70",
					"maxclass" : "message",
					"numinlets" : 2,
					"numoutlets" : 1,
					"outlettype" : [ "" ],
					"patching_rect" : [ 911.0, 316.0, 73.0, 22.0 ],
					"text" : "range $1 $2"
				}

			}
, 			{
				"box" : 				{
					"id" : "obj-61",
					"maxclass" : "newobj",
					"numinlets" : 2,
					"numoutlets" : 2,
					"outlettype" : [ "", "" ],
					"patching_rect" : [ 916.0, 406.0, 68.0, 22.0 ],
					"text" : "zl.group 16"
				}

			}
, 			{
				"box" : 				{
					"format" : 6,
					"id" : "obj-7",
					"maxclass" : "flonum",
					"numinlets" : 1,
					"numoutlets" : 2,
					"outlettype" : [ "", "bang" ],
					"parameter_enable" : 0,
					"patching_rect" : [ 977.0, 196.0, 50.0, 22.0 ],
					"presentation" : 1,
					"presentation_rect" : [ 213.0, 142.0, 50.0, 22.0 ]
				}

			}
, 			{
				"box" : 				{
					"fontsize" : 12.545454545454547,
					"format" : 6,
					"id" : "obj-33",
					"maxclass" : "flonum",
					"numinlets" : 1,
					"numoutlets" : 2,
					"outlettype" : [ "", "bang" ],
					"parameter_enable" : 0,
					"patching_rect" : [ 911.0, 196.0, 50.0, 23.0 ],
					"presentation" : 1,
					"presentation_rect" : [ 122.0, 142.0, 50.0, 23.0 ]
				}

			}
, 			{
				"box" : 				{
					"id" : "obj-23",
					"maxclass" : "message",
					"numinlets" : 2,
					"numoutlets" : 1,
					"outlettype" : [ "" ],
					"patching_rect" : [ 977.0, 222.0, 64.0, 22.0 ],
					"text" : "setmax $1"
				}

			}
, 			{
				"box" : 				{
					"fontsize" : 12.599999999999998,
					"id" : "obj-32",
					"maxclass" : "comment",
					"numinlets" : 1,
					"numoutlets" : 0,
					"patching_rect" : [ 977.0, 171.0, 52.0, 21.0 ],
					"presentation" : 1,
					"presentation_rect" : [ 178.0, 142.0, 33.0, 21.0 ],
					"text" : "max"
				}

			}
, 			{
				"box" : 				{
					"fontsize" : 12.599999999999998,
					"id" : "obj-36",
					"maxclass" : "comment",
					"numinlets" : 1,
					"numoutlets" : 0,
					"patching_rect" : [ 911.0, 171.0, 52.0, 21.0 ],
					"presentation" : 1,
					"presentation_rect" : [ 89.0, 142.0, 31.0, 21.0 ],
					"text" : "min"
				}

			}
, 			{
				"box" : 				{
					"id" : "obj-44",
					"maxclass" : "textbutton",
					"numinlets" : 1,
					"numoutlets" : 3,
					"outlettype" : [ "", "", "int" ],
					"parameter_enable" : 0,
					"patching_rect" : [ 992.0, 260.0, 100.0, 20.0 ],
					"presentation" : 1,
					"presentation_rect" : [ 290.0, 143.0, 99.0, 21.0 ],
					"rounded" : 10.0,
					"style" : "rnbodefault",
					"text" : "Random values",
					"texton" : "Random values"
				}

			}
, 			{
				"box" : 				{
					"id" : "obj-55",
					"maxclass" : "button",
					"numinlets" : 1,
					"numoutlets" : 1,
					"outlettype" : [ "bang" ],
					"parameter_enable" : 0,
					"patching_rect" : [ 992.0, 294.0, 24.0, 24.0 ]
				}

			}
, 			{
				"box" : 				{
					"id" : "obj-46",
					"maxclass" : "newobj",
					"numinlets" : 2,
					"numoutlets" : 1,
					"outlettype" : [ "bang" ],
					"patching_rect" : [ 992.0, 330.0, 49.0, 22.0 ],
					"text" : "metro 1"
				}

			}
, 			{
				"box" : 				{
					"id" : "obj-49",
					"maxclass" : "toggle",
					"numinlets" : 1,
					"numoutlets" : 1,
					"outlettype" : [ "int" ],
					"parameter_enable" : 0,
					"patching_rect" : [ 1043.0, 399.0, 24.0, 24.0 ]
				}

			}
, 			{
				"box" : 				{
					"id" : "obj-47",
					"maxclass" : "newobj",
					"numinlets" : 5,
					"numoutlets" : 4,
					"outlettype" : [ "int", "", "", "int" ],
					"patching_rect" : [ 992.0, 366.0, 96.0, 22.0 ],
					"text" : "counter 0 -1 15"
				}

			}
, 			{
				"box" : 				{
					"id" : "obj-48",
					"maxclass" : "newobj",
					"numinlets" : 2,
					"numoutlets" : 1,
					"outlettype" : [ "" ],
					"patching_rect" : [ 916.0, 375.0, 63.0, 22.0 ],
					"text" : "random 1."
				}

			}
, 			{
				"box" : 				{
					"id" : "obj-50",
					"maxclass" : "message",
					"numinlets" : 2,
					"numoutlets" : 1,
					"outlettype" : [ "" ],
					"patching_rect" : [ 911.0, 222.0, 61.0, 22.0 ],
					"text" : "setmin $1"
				}

			}
, 			{
				"box" : 				{
					"id" : "obj-31",
					"maxclass" : "newobj",
					"numinlets" : 1,
					"numoutlets" : 2,
					"outlettype" : [ "bang", "bang" ],
					"patching_rect" : [ 720.0, 239.0, 100.0, 22.0 ],
					"text" : "b"
				}

			}
, 			{
				"box" : 				{
					"id" : "obj-27",
					"maxclass" : "message",
					"numinlets" : 2,
					"numoutlets" : 1,
					"outlettype" : [ "" ],
					"patching_rect" : [ 720.0, 268.0, 50.0, 22.0 ],
					"text" : "0"
				}

			}
, 			{
				"box" : 				{
					"id" : "obj-16",
					"maxclass" : "message",
					"numinlets" : 2,
					"numoutlets" : 1,
					"outlettype" : [ "" ],
					"patching_rect" : [ 720.0, 197.0, 50.0, 22.0 ],
					"presentation" : 1,
					"presentation_rect" : [ 410.0, 143.0, 35.0, 22.0 ],
					"text" : "reset"
				}

			}
, 			{
				"box" : 				{
					"id" : "obj-45",
					"maxclass" : "message",
					"numinlets" : 2,
					"numoutlets" : 1,
					"outlettype" : [ "" ],
					"patching_rect" : [ 494.0, 132.0, 50.0, 22.0 ],
					"text" : "16"
				}

			}
, 			{
				"box" : 				{
					"id" : "obj-40",
					"maxclass" : "newobj",
					"numinlets" : 1,
					"numoutlets" : 1,
					"outlettype" : [ "bang" ],
					"patching_rect" : [ 494.0, 95.0, 100.0, 22.0 ],
					"text" : "loadbang"
				}

			}
, 			{
				"box" : 				{
					"id" : "obj-17",
					"linecount" : 6,
					"maxclass" : "comment",
					"numinlets" : 1,
					"numoutlets" : 0,
					"patching_rect" : [ 1222.0, 57.0, 151.0, 87.0 ],
					"presentation" : 1,
					"presentation_linecount" : 5,
					"presentation_rect" : [ 166.0, 725.0, 174.0, 74.0 ],
					"text" : "With each training step this should get closer to 0. \n0 means the network is perfectly trained and you can skip to step 7 at the top"
				}

			}
, 			{
				"box" : 				{
					"bubble" : 1,
					"bubbleside" : 0,
					"id" : "obj-13",
					"linecount" : 3,
					"maxclass" : "comment",
					"numinlets" : 1,
					"numoutlets" : 0,
					"patching_rect" : [ 1228.0, 438.0, 152.0, 66.0 ],
					"presentation" : 1,
					"presentation_rect" : [ 60.0, 589.0, 348.0, 39.0 ],
					"text" : "Make sure to select Regression in the Junction."
				}

			}
, 			{
				"box" : 				{
					"id" : "obj-30",
					"maxclass" : "comment",
					"numinlets" : 1,
					"numoutlets" : 0,
					"patching_rect" : [ 44.0, 21.0, 150.0, 20.0 ],
					"presentation" : 1,
					"presentation_rect" : [ 469.0, 151.0, 59.0, 20.0 ],
					"text" : "XY Pad"
				}

			}
, 			{
				"box" : 				{
					"bubble" : 1,
					"id" : "obj-24",
					"linecount" : 2,
					"maxclass" : "comment",
					"numinlets" : 1,
					"numoutlets" : 0,
					"patching_rect" : [ 1222.0, 532.0, 150.0, 37.0 ],
					"presentation" : 1,
					"presentation_rect" : [ 508.0, 503.0, 280.0, 24.0 ],
					"text" : "clears the data so you can enter new seetings"
				}

			}
, 			{
				"box" : 				{
					"bubble" : 1,
					"bubble_outlinecolor" : [ 0.76078431372549, 0.76078431372549, 0.76078431372549, 1.0 ],
					"fontface" : 2,
					"id" : "obj-14",
					"linecount" : 5,
					"maxclass" : "comment",
					"numinlets" : 1,
					"numoutlets" : 0,
					"patching_rect" : [ 1232.0, 327.0, 150.0, 78.0 ],
					"presentation" : 1,
					"presentation_linecount" : 4,
					"presentation_rect" : [ 615.0, 554.0, 219.0, 64.0 ],
					"text" : "If you want to adjust these settings, I would advise to first read the FluCoMa reference on learn.flucoma.org.",
					"textcolor" : [ 0.76078431372549, 0.76078431372549, 0.76078431372549, 1.0 ]
				}

			}
, 			{
				"box" : 				{
					"id" : "obj-11",
					"linecount" : 4,
					"maxclass" : "comment",
					"numinlets" : 1,
					"numoutlets" : 0,
					"patching_rect" : [ 1399.0, 310.0, 150.0, 60.0 ],
					"presentation" : 1,
					"presentation_linecount" : 2,
					"presentation_rect" : [ 41.0, 643.0, 322.0, 33.0 ],
					"text" : "Click this to train regression/interpolations for your linked XY Pad and Multislider settings."
				}

			}
, 			{
				"box" : 				{
					"fontname" : "Arial",
					"id" : "obj-311",
					"maxclass" : "message",
					"numinlets" : 2,
					"numoutlets" : 1,
					"outlettype" : [ "" ],
					"patching_rect" : [ 548.0, 210.0, 70.0, 22.0 ],
					"text" : "samps $1"
				}

			}
, 			{
				"box" : 				{
					"fontname" : "Arial",
					"id" : "obj-258",
					"maxclass" : "number",
					"minimum" : 1,
					"numinlets" : 1,
					"numoutlets" : 2,
					"outlettype" : [ "", "bang" ],
					"parameter_enable" : 0,
					"patching_rect" : [ 494.0, 162.0, 50.0, 22.0 ],
					"presentation" : 1,
					"presentation_rect" : [ 22.0, 143.0, 50.0, 22.0 ],
					"varname" : "number"
				}

			}
, 			{
				"box" : 				{
					"fontname" : "Arial",
					"id" : "obj-253",
					"maxclass" : "message",
					"numinlets" : 2,
					"numoutlets" : 1,
					"outlettype" : [ "" ],
					"patching_rect" : [ 494.0, 210.0, 50.0, 22.0 ],
					"text" : "size $1"
				}

			}
, 			{
				"box" : 				{
					"id" : "obj-29",
					"maxclass" : "button",
					"numinlets" : 1,
					"numoutlets" : 1,
					"outlettype" : [ "bang" ],
					"parameter_enable" : 0,
					"patching_rect" : [ 84.0, 415.0, 24.0, 24.0 ]
				}

			}
, 			{
				"box" : 				{
					"fontname" : "Arial",
					"id" : "obj-12",
					"maxclass" : "newobj",
					"numinlets" : 1,
					"numoutlets" : 1,
					"outlettype" : [ "" ],
					"patching_rect" : [ 283.0, 162.0, 70.0, 22.0 ],
					"text" : "loadmess 0"
				}

			}
, 			{
				"box" : 				{
					"fontname" : "Arial",
					"id" : "obj-18",
					"linecount" : 13,
					"maxclass" : "comment",
					"numinlets" : 0,
					"numoutlets" : 0,
					"patching_rect" : [ 1228.0, 116.0, 125.0, 181.0 ],
					"presentation" : 1,
					"presentation_linecount" : 2,
					"presentation_rect" : [ 61.0, 44.0, 689.0, 33.0 ],
					"suppressinlet" : 1,
					"text" : "1. selecting points = Choose a point in the xy pad + a slider setting you like and then press the blue button.\n2. predicting points = Switch to this when you want the fluid.mlpregressor to output the learned regression between your settings"
				}

			}
, 			{
				"box" : 				{
					"fontname" : "Arial",
					"id" : "obj-2",
					"maxclass" : "newobj",
					"numinlets" : 2,
					"numoutlets" : 1,
					"outlettype" : [ "" ],
					"patching_rect" : [ 283.0, 242.0, 32.0, 22.0 ],
					"text" : "gate"
				}

			}
, 			{
				"box" : 				{
					"activecolor" : [ 0.188235294117647, 0.2, 0.23921568627451, 1.0 ],
					"bgcolor" : [ 0.27843137254902, 0.815686274509804, 0.141176470588235, 1.0 ],
					"disabled" : [ 0, 0 ],
					"elementcolor" : [ 0.188235294117647, 0.2, 0.23921568627451, 1.0 ],
					"id" : "obj-8",
					"itemtype" : 0,
					"maxclass" : "radiogroup",
					"numinlets" : 1,
					"numoutlets" : 1,
					"outlettype" : [ "" ],
					"parameter_enable" : 0,
					"patching_rect" : [ 283.0, 192.0, 18.0, 34.0 ],
					"presentation" : 1,
					"presentation_rect" : [ 41.0, 44.0, 18.0, 34.0 ],
					"size" : 2,
					"value" : 0
				}

			}
, 			{
				"box" : 				{
					"fontname" : "Arial",
					"id" : "obj-42",
					"maxclass" : "newobj",
					"numinlets" : 2,
					"numoutlets" : 1,
					"outlettype" : [ "list" ],
					"patching_rect" : [ 494.0, 239.0, 183.0, 22.0 ],
					"text" : "fluid.buf2list @source paramsbuf"
				}

			}
, 			{
				"box" : 				{
					"fontname" : "Arial",
					"id" : "obj-41",
					"ignoreclick" : 1,
					"linecount" : 2,
					"maxclass" : "message",
					"numinlets" : 2,
					"numoutlets" : 1,
					"outlettype" : [ "" ],
					"patching_rect" : [ 283.0, 453.0, 97.0, 35.0 ],
					"presentation" : 1,
					"presentation_rect" : [ 41.0, 744.0, 113.0, 22.0 ],
					"text" : "Loss Function Error"
				}

			}
, 			{
				"box" : 				{
					"fontname" : "Arial",
					"id" : "obj-39",
					"maxclass" : "newobj",
					"numinlets" : 2,
					"numoutlets" : 2,
					"outlettype" : [ "bang", "" ],
					"patching_rect" : [ 393.0, 453.0, 89.0, 22.0 ],
					"text" : "sel predictpoint"
				}

			}
, 			{
				"box" : 				{
					"fontname" : "Arial",
					"id" : "obj-38",
					"maxclass" : "message",
					"numinlets" : 2,
					"numoutlets" : 1,
					"outlettype" : [ "" ],
					"patching_rect" : [ 283.0, 273.0, 163.0, 22.0 ],
					"text" : "predictpoint xybuf paramsbuf"
				}

			}
, 			{
				"box" : 				{
					"bgcolor" : [ 0.18734464918766, 0.201294289354464, 0.239824219112459, 1.0 ],
					"bgcolor2" : [ 0.18734464918766, 0.201294289354464, 0.239824219112459, 1.0 ],
					"bgfillcolor_angle" : 270.0,
					"bgfillcolor_autogradient" : 0.0,
					"bgfillcolor_color" : [ 0.250980392156863, 0.203921568627451, 0.937254901960784, 1.0 ],
					"bgfillcolor_color1" : [ 0.18734464918766, 0.201294289354464, 0.239824219112459, 1.0 ],
					"bgfillcolor_color2" : [ 0.18734464918766, 0.201294289354464, 0.239824219112459, 1.0 ],
					"bgfillcolor_proportion" : 0.5,
					"bgfillcolor_type" : "color",
					"fontname" : "Arial",
					"gradient" : 1,
					"id" : "obj-34",
					"maxclass" : "message",
					"numinlets" : 2,
					"numoutlets" : 1,
					"outlettype" : [ "" ],
					"patching_rect" : [ 318.0, 308.0, 123.0, 22.0 ],
					"saved_attribute_attributes" : 					{
						"bgfillcolor" : 						{
							"expression" : "themecolor.live_midi_assignment"
						}

					}
,
					"text" : "fit xydata paramsdata"
				}

			}
, 			{
				"box" : 				{
					"fontname" : "Arial",
					"id" : "obj-3",
					"maxclass" : "message",
					"numinlets" : 2,
					"numoutlets" : 1,
					"outlettype" : [ "" ],
					"patching_rect" : [ 82.0, 610.0, 35.0, 22.0 ],
					"presentation" : 1,
					"presentation_rect" : [ 471.0, 504.0, 35.0, 22.0 ],
					"text" : "clear"
				}

			}
, 			{
				"box" : 				{
					"fontname" : "Arial",
					"id" : "obj-4",
					"maxclass" : "message",
					"numinlets" : 2,
					"numoutlets" : 1,
					"outlettype" : [ "" ],
					"patching_rect" : [ 121.0, 583.0, 103.0, 22.0 ],
					"text" : "addpoint $1 xybuf"
				}

			}
, 			{
				"box" : 				{
					"fontname" : "Arial",
					"id" : "obj-26",
					"maxclass" : "message",
					"numinlets" : 2,
					"numoutlets" : 1,
					"outlettype" : [ "" ],
					"patching_rect" : [ 262.0, 583.0, 131.0, 22.0 ],
					"text" : "addpoint $1 paramsbuf"
				}

			}
, 			{
				"box" : 				{
					"fontname" : "Arial",
					"id" : "obj-5",
					"maxclass" : "newobj",
					"numinlets" : 1,
					"numoutlets" : 2,
					"outlettype" : [ "", "" ],
					"patching_rect" : [ 262.0, 641.0, 147.0, 22.0 ],
					"text" : "fluid.dataset~ paramsdata"
				}

			}
, 			{
				"box" : 				{
					"fontname" : "Arial",
					"id" : "obj-22",
					"maxclass" : "newobj",
					"numinlets" : 1,
					"numoutlets" : 2,
					"outlettype" : [ "", "" ],
					"patching_rect" : [ 121.0, 641.0, 119.0, 22.0 ],
					"text" : "fluid.dataset~ xydata"
				}

			}
, 			{
				"box" : 				{
					"fontname" : "Arial",
					"id" : "obj-21",
					"maxclass" : "newobj",
					"numinlets" : 2,
					"numoutlets" : 2,
					"outlettype" : [ "", "" ],
					"patching_rect" : [ 121.0, 540.0, 162.0, 22.0 ],
					"text" : "combine point- s @triggers 1"
				}

			}
, 			{
				"box" : 				{
					"fontname" : "Arial",
					"id" : "obj-20",
					"maxclass" : "newobj",
					"numinlets" : 5,
					"numoutlets" : 4,
					"outlettype" : [ "int", "", "", "int" ],
					"patching_rect" : [ 121.0, 506.0, 61.0, 22.0 ],
					"text" : "counter"
				}

			}
, 			{
				"box" : 				{
					"fontname" : "Arial",
					"id" : "obj-19",
					"maxclass" : "comment",
					"numinlets" : 1,
					"numoutlets" : 0,
					"patching_rect" : [ 150.0, 473.0, 94.0, 20.0 ],
					"text" : "add in / out pair"
				}

			}
, 			{
				"box" : 				{
					"bgcolor" : [ 0.27843137254902, 0.815686274509804, 0.141176470588235, 1.0 ],
					"blinkcolor" : [ 0.0, 0.0, 0.0, 1.0 ],
					"id" : "obj-10",
					"maxclass" : "button",
					"numinlets" : 1,
					"numoutlets" : 1,
					"outlettype" : [ "bang" ],
					"parameter_enable" : 0,
					"patching_rect" : [ 121.0, 471.0, 24.0, 24.0 ],
					"presentation" : 1,
					"presentation_rect" : [ 41.0, 483.0, 63.0, 63.0 ]
				}

			}
, 			{
				"box" : 				{
					"fontname" : "Arial",
					"id" : "obj-15",
					"maxclass" : "newobj",
					"numinlets" : 1,
					"numoutlets" : 2,
					"outlettype" : [ "float", "bang" ],
					"patching_rect" : [ 513.0, 468.0, 174.0, 22.0 ],
					"text" : "buffer~ paramsbuf @samps 10"
				}

			}
, 			{
				"box" : 				{
					"fontname" : "Arial",
					"id" : "obj-25",
					"maxclass" : "newobj",
					"numinlets" : 1,
					"numoutlets" : 1,
					"outlettype" : [ "buffer" ],
					"patching_rect" : [ 513.0, 439.0, 205.0, 22.0 ],
					"text" : "fluid.list2buf @destination paramsbuf"
				}

			}
, 			{
				"box" : 				{
					"fontname" : "Arial",
					"id" : "obj-28",
					"maxclass" : "newobj",
					"numinlets" : 1,
					"numoutlets" : 1,
					"outlettype" : [ "" ],
					"patching_rect" : [ 84.0, 353.0, 91.0, 22.0 ],
					"text" : "vexpr $i1 / 127."
				}

			}
, 			{
				"box" : 				{
					"fontname" : "Arial",
					"id" : "obj-43",
					"maxclass" : "newobj",
					"numinlets" : 2,
					"numoutlets" : 1,
					"outlettype" : [ "" ],
					"patching_rect" : [ 84.0, 323.0, 30.0, 22.0 ],
					"text" : "join"
				}

			}
, 			{
				"box" : 				{
					"fontname" : "Arial",
					"id" : "obj-64",
					"maxclass" : "newobj",
					"numinlets" : 1,
					"numoutlets" : 2,
					"outlettype" : [ "float", "bang" ],
					"patching_rect" : [ 121.0, 674.0, 139.0, 22.0 ],
					"text" : "buffer~ xybuf @samps 2"
				}

			}
, 			{
				"box" : 				{
					"fontname" : "Arial",
					"id" : "obj-102",
					"maxclass" : "newobj",
					"numinlets" : 1,
					"numoutlets" : 1,
					"outlettype" : [ "buffer" ],
					"patching_rect" : [ 84.0, 384.0, 177.0, 22.0 ],
					"text" : "fluid.list2buf @destination xybuf"
				}

			}
, 			{
				"box" : 				{
					"candycane" : 10,
					"contdata" : 1,
					"ghostbar" : 100,
					"id" : "obj-199",
					"maxclass" : "multislider",
					"numinlets" : 1,
					"numoutlets" : 2,
					"outlettype" : [ "", "" ],
					"parameter_enable" : 0,
					"patching_rect" : [ 494.0, 303.0, 176.0, 125.0 ],
					"presentation" : 1,
					"presentation_rect" : [ 22.0, 175.0, 423.0, 294.0 ],
					"setminmax" : [ -2.0, 2.0 ],
					"signed" : 1,
					"size" : 16
				}

			}
, 			{
				"box" : 				{
					"id" : "obj-213",
					"maxclass" : "pictslider",
					"numinlets" : 2,
					"numoutlets" : 2,
					"outlettype" : [ "int", "int" ],
					"parameter_enable" : 0,
					"patching_rect" : [ 44.0, 111.0, 216.0, 196.5 ],
					"presentation" : 1,
					"presentation_rect" : [ 469.0, 175.0, 375.0, 294.0 ],
					"style" : "chiba"
				}

			}
, 			{
				"box" : 				{
					"fontname" : "Arial",
					"id" : "obj-225",
					"linecount" : 7,
					"maxclass" : "newobj",
					"numinlets" : 1,
					"numoutlets" : 2,
					"outlettype" : [ "", "" ],
					"patching_rect" : [ 283.0, 339.0, 156.0, 102.0 ],
					"presentation" : 1,
					"presentation_linecount" : 8,
					"presentation_rect" : [ 469.0, 533.0, 132.0, 116.0 ],
					"text" : "fluid.mlpregressor~ @hiddenlayers 4 8 12 @activation 3 @outputactivation 0 @batchsize 1 @maxiter 10000 @learnrate 0.01 @validation 0"
				}

			}
, 			{
				"box" : 				{
					"fontname" : "Arial",
					"fontsize" : 18.0,
					"id" : "obj-245",
					"maxclass" : "comment",
					"numinlets" : 1,
					"numoutlets" : 0,
					"patching_rect" : [ 100.0, 43.0, 104.0, 27.0 ],
					"text" : "Regression"
				}

			}
, 			{
				"box" : 				{
					"angle" : 270.0,
					"background" : 1,
					"grad1" : [ 0.282352941176471, 0.517647058823529, 0.572549019607843, 1.0 ],
					"grad2" : [ 0.647058823529412, 0.647058823529412, 0.647058823529412, 1.0 ],
					"id" : "obj-35",
					"maxclass" : "panel",
					"mode" : 1,
					"numinlets" : 1,
					"numoutlets" : 0,
					"patching_rect" : [ 1227.0, 872.0, 128.0, 128.0 ],
					"presentation" : 1,
					"presentation_rect" : [ 1.0, 1.0, 868.0, 858.0 ],
					"proportion" : 0.5
				}

			}
 ],
		"lines" : [ 			{
				"patchline" : 				{
					"destination" : [ "obj-20", 0 ],
					"source" : [ "obj-10", 0 ]
				}

			}
, 			{
				"patchline" : 				{
					"destination" : [ "obj-29", 0 ],
					"source" : [ "obj-102", 0 ]
				}

			}
, 			{
				"patchline" : 				{
					"destination" : [ "obj-8", 0 ],
					"source" : [ "obj-12", 0 ]
				}

			}
, 			{
				"patchline" : 				{
					"destination" : [ "obj-31", 0 ],
					"source" : [ "obj-16", 0 ]
				}

			}
, 			{
				"patchline" : 				{
					"destination" : [ "obj-25", 0 ],
					"order" : 0,
					"source" : [ "obj-199", 0 ]
				}

			}
, 			{
				"patchline" : 				{
					"destination" : [ "obj-37", 0 ],
					"order" : 1,
					"source" : [ "obj-199", 0 ]
				}

			}
, 			{
				"patchline" : 				{
					"destination" : [ "obj-38", 0 ],
					"source" : [ "obj-2", 0 ]
				}

			}
, 			{
				"patchline" : 				{
					"destination" : [ "obj-21", 1 ],
					"source" : [ "obj-20", 0 ]
				}

			}
, 			{
				"patchline" : 				{
					"destination" : [ "obj-26", 0 ],
					"order" : 0,
					"source" : [ "obj-21", 0 ]
				}

			}
, 			{
				"patchline" : 				{
					"destination" : [ "obj-4", 0 ],
					"order" : 1,
					"source" : [ "obj-21", 0 ]
				}

			}
, 			{
				"patchline" : 				{
					"destination" : [ "obj-43", 1 ],
					"midpoints" : [ 250.5, 317.699997425079346, 104.5, 317.699997425079346 ],
					"source" : [ "obj-213", 1 ]
				}

			}
, 			{
				"patchline" : 				{
					"destination" : [ "obj-43", 0 ],
					"midpoints" : [ 53.5, 317.699997425079346, 93.5, 317.699997425079346 ],
					"source" : [ "obj-213", 0 ]
				}

			}
, 			{
				"patchline" : 				{
					"destination" : [ "obj-39", 0 ],
					"order" : 0,
					"source" : [ "obj-225", 0 ]
				}

			}
, 			{
				"patchline" : 				{
					"destination" : [ "obj-41", 1 ],
					"order" : 1,
					"source" : [ "obj-225", 0 ]
				}

			}
, 			{
				"patchline" : 				{
					"destination" : [ "obj-199", 0 ],
					"midpoints" : [ 986.5, 245.0, 979.0, 245.0, 979.0, 257.0, 832.0, 257.0, 832.0, 302.0, 682.0, 302.0, 682.0, 290.0, 503.5, 290.0 ],
					"source" : [ "obj-23", 0 ]
				}

			}
, 			{
				"patchline" : 				{
					"destination" : [ "obj-199", 0 ],
					"source" : [ "obj-253", 0 ]
				}

			}
, 			{
				"patchline" : 				{
					"destination" : [ "obj-253", 0 ],
					"order" : 1,
					"source" : [ "obj-258", 0 ]
				}

			}
, 			{
				"patchline" : 				{
					"destination" : [ "obj-311", 0 ],
					"order" : 0,
					"source" : [ "obj-258", 0 ]
				}

			}
, 			{
				"patchline" : 				{
					"destination" : [ "obj-5", 0 ],
					"source" : [ "obj-26", 0 ]
				}

			}
, 			{
				"patchline" : 				{
					"destination" : [ "obj-199", 0 ],
					"source" : [ "obj-27", 0 ]
				}

			}
, 			{
				"patchline" : 				{
					"destination" : [ "obj-102", 0 ],
					"source" : [ "obj-28", 0 ]
				}

			}
, 			{
				"patchline" : 				{
					"destination" : [ "obj-2", 1 ],
					"midpoints" : [ 93.5, 449.599997937679291, 267.999981820583344, 449.599997937679291, 267.999981820583344, 235.599997937679291, 305.5, 235.599997937679291 ],
					"source" : [ "obj-29", 0 ]
				}

			}
, 			{
				"patchline" : 				{
					"destination" : [ "obj-22", 0 ],
					"midpoints" : [ 91.5, 634.599997937679291, 130.5, 634.599997937679291 ],
					"order" : 1,
					"source" : [ "obj-3", 0 ]
				}

			}
, 			{
				"patchline" : 				{
					"destination" : [ "obj-5", 0 ],
					"midpoints" : [ 91.5, 637.599997937679291, 258.999981820583344, 637.599997937679291, 258.999981820583344, 637.599997937679291, 271.5, 637.599997937679291 ],
					"order" : 0,
					"source" : [ "obj-3", 0 ]
				}

			}
, 			{
				"patchline" : 				{
					"destination" : [ "obj-27", 0 ],
					"source" : [ "obj-31", 0 ]
				}

			}
, 			{
				"patchline" : 				{
					"destination" : [ "obj-15", 0 ],
					"source" : [ "obj-311", 0 ]
				}

			}
, 			{
				"patchline" : 				{
					"destination" : [ "obj-50", 0 ],
					"order" : 1,
					"source" : [ "obj-33", 0 ]
				}

			}
, 			{
				"patchline" : 				{
					"destination" : [ "obj-72", 0 ],
					"order" : 0,
					"source" : [ "obj-33", 0 ]
				}

			}
, 			{
				"patchline" : 				{
					"destination" : [ "obj-225", 0 ],
					"source" : [ "obj-34", 0 ]
				}

			}
, 			{
				"patchline" : 				{
					"destination" : [ "obj-225", 0 ],
					"source" : [ "obj-38", 0 ]
				}

			}
, 			{
				"patchline" : 				{
					"destination" : [ "obj-42", 0 ],
					"midpoints" : [ 402.5, 484.599997937679291, 488.199981212615967, 484.599997937679291, 488.199981212615967, 262.599997937679291, 503.5, 262.599997937679291 ],
					"source" : [ "obj-39", 0 ]
				}

			}
, 			{
				"patchline" : 				{
					"destination" : [ "obj-22", 0 ],
					"source" : [ "obj-4", 0 ]
				}

			}
, 			{
				"patchline" : 				{
					"destination" : [ "obj-45", 0 ],
					"order" : 2,
					"source" : [ "obj-40", 0 ]
				}

			}
, 			{
				"patchline" : 				{
					"destination" : [ "obj-52", 0 ],
					"midpoints" : [ 503.5, 128.0, 920.5, 128.0 ],
					"order" : 1,
					"source" : [ "obj-40", 0 ]
				}

			}
, 			{
				"patchline" : 				{
					"destination" : [ "obj-6", 0 ],
					"midpoints" : [ 503.5, 128.0, 986.5, 128.0 ],
					"order" : 0,
					"source" : [ "obj-40", 0 ]
				}

			}
, 			{
				"patchline" : 				{
					"destination" : [ "obj-199", 0 ],
					"source" : [ "obj-42", 0 ]
				}

			}
, 			{
				"patchline" : 				{
					"destination" : [ "obj-28", 0 ],
					"source" : [ "obj-43", 0 ]
				}

			}
, 			{
				"patchline" : 				{
					"destination" : [ "obj-55", 0 ],
					"source" : [ "obj-44", 0 ]
				}

			}
, 			{
				"patchline" : 				{
					"destination" : [ "obj-258", 0 ],
					"source" : [ "obj-45", 0 ]
				}

			}
, 			{
				"patchline" : 				{
					"destination" : [ "obj-47", 0 ],
					"order" : 0,
					"source" : [ "obj-46", 0 ]
				}

			}
, 			{
				"patchline" : 				{
					"destination" : [ "obj-48", 0 ],
					"order" : 1,
					"source" : [ "obj-46", 0 ]
				}

			}
, 			{
				"patchline" : 				{
					"destination" : [ "obj-49", 0 ],
					"source" : [ "obj-47", 2 ]
				}

			}
, 			{
				"patchline" : 				{
					"destination" : [ "obj-61", 0 ],
					"source" : [ "obj-48", 0 ]
				}

			}
, 			{
				"patchline" : 				{
					"destination" : [ "obj-46", 0 ],
					"source" : [ "obj-49", 0 ]
				}

			}
, 			{
				"patchline" : 				{
					"destination" : [ "obj-199", 0 ],
					"midpoints" : [ 920.5, 245.0, 832.0, 245.0, 832.0, 302.0, 682.0, 302.0, 682.0, 290.0, 503.5, 290.0 ],
					"source" : [ "obj-50", 0 ]
				}

			}
, 			{
				"patchline" : 				{
					"destination" : [ "obj-33", 0 ],
					"source" : [ "obj-52", 0 ]
				}

			}
, 			{
				"patchline" : 				{
					"destination" : [ "obj-199", 0 ],
					"source" : [ "obj-54", 0 ]
				}

			}
, 			{
				"patchline" : 				{
					"destination" : [ "obj-46", 0 ],
					"source" : [ "obj-55", 0 ]
				}

			}
, 			{
				"patchline" : 				{
					"destination" : [ "obj-213", 0 ],
					"source" : [ "obj-56", 0 ]
				}

			}
, 			{
				"patchline" : 				{
					"destination" : [ "obj-34", 0 ],
					"source" : [ "obj-57", 0 ]
				}

			}
, 			{
				"patchline" : 				{
					"destination" : [ "obj-7", 0 ],
					"source" : [ "obj-6", 0 ]
				}

			}
, 			{
				"patchline" : 				{
					"destination" : [ "obj-199", 0 ],
					"midpoints" : [ 925.5, 431.0, 730.0, 431.0, 730.0, 302.0, 682.0, 302.0, 682.0, 290.0, 503.5, 290.0 ],
					"source" : [ "obj-61", 0 ]
				}

			}
, 			{
				"patchline" : 				{
					"destination" : [ "obj-23", 0 ],
					"order" : 0,
					"source" : [ "obj-7", 0 ]
				}

			}
, 			{
				"patchline" : 				{
					"destination" : [ "obj-72", 1 ],
					"order" : 1,
					"source" : [ "obj-7", 0 ]
				}

			}
, 			{
				"patchline" : 				{
					"destination" : [ "obj-78", 0 ],
					"order" : 2,
					"source" : [ "obj-7", 0 ]
				}

			}
, 			{
				"patchline" : 				{
					"destination" : [ "obj-48", 1 ],
					"source" : [ "obj-70", 0 ]
				}

			}
, 			{
				"patchline" : 				{
					"destination" : [ "obj-70", 0 ],
					"source" : [ "obj-72", 0 ]
				}

			}
, 			{
				"patchline" : 				{
					"destination" : [ "obj-258", 0 ],
					"order" : 0,
					"source" : [ "obj-76", 0 ]
				}

			}
, 			{
				"patchline" : 				{
					"destination" : [ "obj-54", 0 ],
					"order" : 1,
					"source" : [ "obj-76", 0 ]
				}

			}
, 			{
				"patchline" : 				{
					"destination" : [ "obj-72", 0 ],
					"source" : [ "obj-78", 0 ]
				}

			}
, 			{
				"patchline" : 				{
					"destination" : [ "obj-2", 0 ],
					"source" : [ "obj-8", 0 ]
				}

			}
 ],
		"dependency_cache" : [ 			{
				"name" : "fluid.buf2list.mxo",
				"type" : "iLaX"
			}
, 			{
				"name" : "fluid.dataset~.mxo",
				"type" : "iLaX"
			}
, 			{
				"name" : "fluid.list2buf.mxo",
				"type" : "iLaX"
			}
, 			{
				"name" : "fluid.mlpregressor~.mxo",
				"type" : "iLaX"
			}
 ],
		"autosave" : 0,
		"styles" : [ 			{
				"name" : "rnbodefault",
				"default" : 				{
					"accentcolor" : [ 0.343034118413925, 0.506230533123016, 0.86220508813858, 1.0 ],
					"bgcolor" : [ 0.031372549019608, 0.125490196078431, 0.211764705882353, 1.0 ],
					"bgfillcolor" : 					{
						"angle" : 270.0,
						"autogradient" : 0.0,
						"color" : [ 0.031372549019608, 0.125490196078431, 0.211764705882353, 1.0 ],
						"color1" : [ 0.031372549019608, 0.125490196078431, 0.211764705882353, 1.0 ],
						"color2" : [ 0.263682, 0.004541, 0.038797, 1.0 ],
						"proportion" : 0.39,
						"type" : "color"
					}
,
					"color" : [ 0.929412, 0.929412, 0.352941, 1.0 ],
					"elementcolor" : [ 0.357540726661682, 0.515565991401672, 0.861786782741547, 1.0 ],
					"fontname" : [ "Lato" ],
					"fontsize" : [ 12.0 ],
					"stripecolor" : [ 0.258338063955307, 0.352425158023834, 0.511919498443604, 1.0 ],
					"textcolor_inverse" : [ 0.968627, 0.968627, 0.968627, 1 ]
				}
,
				"parentstyle" : "",
				"multi" : 0
			}
 ]
	}

}
